<?xml version="1.0" standalone="no"?><!DOCTYPE svg PUBLIC "-//W3C//DTD SVG 1.1//EN" "http://www.w3.org/Graphics/SVG/1.1/DTD/svg11.dtd"><svg t="1593414642181" class="icon" viewBox="0 0 1024 1024" version="1.1" xmlns="http://www.w3.org/2000/svg" p-id="5827" width="55" height="55" xmlns:xlink="http://www.w3.org/1999/xlink"><defs><style type="text/css"></style></defs><path d="M281.6 876.8a19.2 19.2 0 0 1-11.008-3.328 20.224 20.224 0 0 1-8.704-22.016l24.064-98.56H179.2a72.704 72.704 0 0 1-71.68-72.704v-460.8A72.704 72.704 0 0 1 179.2 147.2h665.6a72.704 72.704 0 0 1 71.68 72.704v460.8a72.704 72.704 0 0 1-71.68 72.192H448.256l-155.136 119.552a20.224 20.224 0 0 1-11.52 4.352zM179.2 188.16a32 32 0 0 0-30.72 31.744v460.8A32 32 0 0 0 179.2 711.936h130.56a20.48 20.48 0 0 1 16.128 7.68 20.224 20.224 0 0 1 3.84 17.664l-16.384 67.072L428.8 716.8a21.504 21.504 0 0 1 12.544-4.096H844.8a31.744 31.744 0 0 0 31.744-31.744v-460.8A31.744 31.744 0 0 0 844.8 188.16z" fill="#ffffff" p-id="5828"></path><path d="M730.112 377.856h-435.2a20.48 20.48 0 1 1 0-40.96h435.2a20.48 20.48 0 1 1 0 40.96zM526.592 573.952h-232.704a20.48 20.48 0 0 1 0-40.96h232.704a20.48 20.48 0 0 1 0 40.96z" fill="#ffffff" p-id="5829"></path></svg>