<?xml version="1.0" standalone="no"?><!DOCTYPE svg PUBLIC "-//W3C//DTD SVG 1.1//EN" "http://www.w3.org/Graphics/SVG/1.1/DTD/svg11.dtd"><svg t="1593412645896" class="icon" viewBox="0 0 1024 1024" version="1.1" xmlns="http://www.w3.org/2000/svg" p-id="2305" width="64" height="64" xmlns:xlink="http://www.w3.org/1999/xlink"><defs><style type="text/css"></style></defs><path d="M277.505 321.215c-56.536 0-102.53-45.994-102.53-102.528 0-56.518 45.994-102.498 102.53-102.498C334.02 116.19 380 162.17 380 218.687c0 56.534-45.98 102.528-102.496 102.528z m0-174.327c-39.608 0-71.831 32.209-71.831 71.799 0 39.607 32.223 71.829 71.83 71.829 39.59 0 71.798-32.222 71.798-71.83 0-39.589-32.209-71.798-71.797-71.798zM747.017 321.215c-56.5 0-102.466-45.994-102.466-102.528 0-56.518 45.966-102.498 102.466-102.498 56.553 0 102.562 45.98 102.562 102.498-0.001 56.534-46.009 102.528-102.562 102.528z m0-174.327c-39.572 0-71.766 32.209-71.766 71.799 0 39.607 32.194 71.829 71.766 71.829 39.626 0 71.863-32.222 71.863-71.83-0.001-39.589-32.237-71.798-71.863-71.798z" fill="#ffffff" p-id="2306"></path><path d="M853.72 877.94h-95.43l-11.389-74.614-11.375 74.614h-89.979V626.37l4.625-4.517c22.527-21.998 35.446-52.564 35.444-83.861V396.316c0-22.79-6.588-44.902-19.052-63.944l-11.966-18.278 21.253-5.06a98.038 98.038 0 0 1 22.685-2.661h101.823c54.094 0 98.102 44.01 98.102 98.104v130.177c0 33.471-16.921 64.194-44.74 82.265V877.94z m-69.06-30.699h38.36v-248.42l8.251-4.304c22.508-11.742 36.49-34.68 36.49-59.862V404.478c0-37.167-30.237-67.405-67.403-67.405h-96.444c8.16 18.58 12.4 38.693 12.4 59.244v141.674c0.003 37.316-14.525 73.793-40.067 101.1v208.15h32.906l22.566-148.016 30.348-0.003 22.592 148.02zM514.362 304.33c-60.76 0-110.191-49.435-110.191-110.197 0-60.76 49.431-110.192 110.191-110.192 60.762 0 110.196 49.433 110.196 110.192 0 60.762-49.434 110.196-110.196 110.196z m0-189.69c-43.832 0-79.492 35.661-79.492 79.493 0 43.835 35.66 79.497 79.492 79.497 43.835 0 79.497-35.662 79.497-79.497 0-43.833-35.662-79.493-79.497-79.493z" fill="#ffffff" p-id="2307"></path><path d="M623.432 910.186h-95.368l-13.546-88.815-13.547 88.815H399.65V626.774c-30.28-19.356-48.73-52.571-48.73-88.784V396.316c0-58.115 47.295-105.396 105.427-105.396h110.83c58.116 0 105.396 47.28 105.396 105.396v141.676c0 36.412-18.605 69.717-49.14 89.023v283.17z m-68.995-30.7h38.297v-276.71h11.457c23.335-13.398 37.681-37.904 37.681-64.784V396.316c0-41.188-33.508-74.697-74.696-74.697h-110.83c-41.204 0-74.727 33.51-74.727 74.697V537.99c0 27.91 15.508 53.327 40.472 66.335l8.257 4.302v270.859h44.25l24.745-162.227h30.347l24.747 162.228z" fill="#ffffff" p-id="2308"></path><path d="M378.972 877.94h-89.949l-11.373-74.608-11.388 74.608h-95.4V616.922c-27.84-18.065-44.775-48.79-44.775-82.268V404.478c0-54.095 44.01-98.104 98.105-98.104h101.824c7.65 0 15.285 0.895 22.688 2.661l21.243 5.067-11.96 18.27c-12.465 19.043-19.054 41.154-19.054 63.945v141.676c0 31.288 12.91 61.856 35.42 83.867l4.618 4.516V877.94z m-63.575-30.699h32.875V639.084c-25.522-27.314-40.037-63.787-40.037-101.091V396.316c0-20.55 4.242-40.664 12.402-59.244h-96.445c-37.168 0-67.406 30.238-67.406 67.405v130.177c0 25.184 13.993 48.12 36.518 59.856l8.257 4.302V847.24h38.331l22.594-148.018 30.348 0.003 22.563 148.016z" fill="#ffffff" p-id="2309"></path></svg>