<?xml version="1.0" standalone="no"?><!DOCTYPE svg PUBLIC "-//W3C//DTD SVG 1.1//EN" "http://www.w3.org/Graphics/SVG/1.1/DTD/svg11.dtd"><svg t="1593414057624" class="icon" viewBox="0 0 1024 1024" version="1.1" xmlns="http://www.w3.org/2000/svg" p-id="4985" xmlns:xlink="http://www.w3.org/1999/xlink" width="50" height="50"><defs><style type="text/css"></style></defs><path d="M942.08 887.466667H81.92C37.546667 887.466667 0 853.333333 0 805.546667V218.453333C0 170.666667 37.546667 136.533333 81.92 136.533333h860.16C986.453333 136.533333 1024 170.666667 1024 218.453333v590.506667c0 44.373333-37.546667 78.506667-81.92 78.506667zM81.92 177.493333c-20.48 0-40.96 17.066667-40.96 40.96v590.506667c0 20.48 17.066667 40.96 40.96 40.96h860.16c20.48 0 40.96-17.066667 40.96-40.96V218.453333c0-20.48-17.066667-40.96-40.96-40.96H81.92z" p-id="4986" fill="#ffffff"></path><path d="M624.64 395.946667c-47.786667 0-85.333333-37.546667-85.333333-85.333334s37.546667-85.333333 85.333333-85.333333 85.333333 37.546667 85.333333 85.333333-37.546667 85.333333-85.333333 85.333334z m0-129.706667c-23.893333 0-44.373333 20.48-44.373333 44.373333 0 23.893333 20.48 44.373333 44.373333 44.373334 23.893333 0 44.373333-20.48 44.373333-44.373334 0-23.893333-20.48-44.373333-44.373333-44.373333zM928.426667 727.04l-163.84-163.84c-3.413333-3.413333-10.24-6.826667-13.653334-6.826667-6.826667 0-10.24 3.413333-13.653333 6.826667l-98.986667 98.986667-228.693333-225.28c-3.413333-3.413333-10.24-6.826667-13.653333-6.826667-6.826667 0-10.24 3.413333-13.653334 6.826667l-286.72 286.72c-6.826667 6.826667-6.826667 20.48 0 30.72 6.826667 6.826667 20.48 6.826667 30.72 0l273.066667-273.066667 324.266667 324.266667c6.826667 6.826667 20.48 6.826667 30.72 0 6.826667-6.826667 6.826667-20.48 0-30.72l-81.92-81.92 85.333333-85.333334 146.773333 146.773334c6.826667 6.826667 20.48 6.826667 30.72 0 0-6.826667 0-20.48-6.826666-27.306667z" p-id="4987" fill="#ffffff"></path></svg>